<?xml version="1.0" standalone="no"?>
<!DOCTYPE svg PUBLIC "-//W3C//DTD SVG 20010904//EN"
 "http://www.w3.org/TR/2001/REC-SVG-20010904/DTD/svg10.dtd">
<svg version="1.0" xmlns="http://www.w3.org/2000/svg"
 width="453.000000pt" height="453.000000pt" viewBox="0 0 453.000000 453.000000"
 preserveAspectRatio="xMidYMid meet">
<metadata>
Created by potrace 1.14, written by Peter Selinger 2001-2017
</metadata>
<g transform="translate(0.000000,453.000000) scale(0.100000,-0.100000)"
fill="#000000" stroke="none">
<path d="M670 4511 c-167 -36 -295 -106 -420 -231 -117 -117 -208 -293 -226
-435 -4 -33 -8 -451 -10 -930 -1 -478 -3 -874 -4 -880 -1 -5 0 -50 1 -100 4
-195 4 -1097 0 -1101 -20 -19 25 -209 80 -339 7 -16 13 -32 14 -35 4 -19 41
-77 63 -100 15 -16 41 -45 57 -65 17 -20 43 -49 59 -63 16 -15 34 -32 40 -38
23 -22 242 -131 276 -137 14 -3 36 -8 50 -11 14 -3 39 -9 55 -12 46 -10 3013
-13 3075 -3 148 23 160 26 219 55 28 13 56 25 63 26 7 2 19 9 26 16 7 6 20 12
28 12 8 0 14 4 14 9 0 5 13 14 30 21 34 14 126 102 185 175 21 28 42 52 45 55
18 15 99 231 116 310 6 32 15 683 11 855 -1 39 -1 124 -1 190 1 133 2 215 1
385 0 63 1 153 3 200 2 48 0 91 -3 97 -4 7 -5 70 -2 140 7 184 8 246 1 263 -3
8 -3 62 -1 120 3 104 4 170 3 365 0 55 1 143 2 195 2 52 0 120 -4 150 -3 30
-8 93 -11 140 -6 104 -22 156 -75 257 -61 113 -96 161 -170 233 -100 96 -215
160 -375 207 -56 16 -161 18 -1595 20 -1444 1 -1540 1 -1620 -16z"/>
</g>
</svg>
